<?xml version="1.0" standalone="no"?><!DOCTYPE svg PUBLIC "-//W3C//DTD SVG 1.1//EN" "http://www.w3.org/Graphics/SVG/1.1/DTD/svg11.dtd"><svg t="1543839465815" class="icon" style="" viewBox="0 0 1024 1024" version="1.1" xmlns="http://www.w3.org/2000/svg" p-id="8429" xmlns:xlink="http://www.w3.org/1999/xlink" width="200" height="200"><defs><style type="text/css"></style></defs><path d="M243.4844448 574.35022187c-2.95822187 8.96568853-4.55111147 18.56853333-4.55111147 28.53546666v90.97671147a91.02222187 91.02222187 0 0 0 91.02222187 91.02222187h91.02222293a91.02222187 91.02222187 0 0 0 91.02222187-91.02222187v-90.97671147c0-10.0124448-1.59288853-19.56977813-4.55111147-28.58097706 135.8051552 36.31786667 232.10666667 127.11253333 232.10666667 233.33546666V876.08888853a91.02222187 91.02222187 0 0 1-91.02222187 91.02222294H102.4a91.02222187 91.02222187 0 0 1-91.02222187-91.02222294v-68.4487104c0-106.22293333 96.30151147-197.0176 232.10666667-233.33546666z m620.1344 302.51235626A90.56711147 90.56711147 0 0 0 876.08888853 830.80533333V762.31111147c0-100.1244448-90.9312-186.5955552-222.27626666-226.59982294C706.3779552 485.64906667 739.5555552 412.0576 739.5555552 329.9555552c0-49.5616-12.1059552-96.0284448-33.2231104-136.07822187C801.13208853 200.97706667 876.08888853 289.7692448 876.08888853 398.22222187c0 70.76977813-31.85777813 133.16551147-80.41813333 169.9384896 126.11128853 27.30666667 216.95146667 103.90186667 216.95146667 194.1504v69.0403552a45.51111147 45.51111147 0 0 1-45.5111104 45.51111146h-103.49226667zM375.46666667 602.88568853a45.51111147 45.51111147 0 0 1 45.51111146 45.51111147v45.51111147a45.51111147 45.51111147 0 1 1-91.02222293 0v-45.51111147a45.51111147 45.51111147 0 0 1 45.51111147-45.51111147z m0-45.5111104c-125.65617813 0-227.5555552-112.0483552-227.5555552-250.2200896C147.91111147 168.9372448 249.81048853 56.88888853 375.46666667 56.88888853s227.5555552 112.0483552 227.5555552 250.2656c0 138.17173333-101.89937813 250.22008853-227.5555552 250.2200896z" p-id="8430"></path></svg>